<?xml version="1.0" standalone="no"?>
<!DOCTYPE svg PUBLIC "-//W3C//DTD SVG 20010904//EN"
 "http://www.w3.org/TR/2001/REC-SVG-20010904/DTD/svg10.dtd">
<svg version="1.0" xmlns="http://www.w3.org/2000/svg"
 width="140.000000pt" height="140.000000pt" viewBox="0 0 140.000000 140.000000"
 preserveAspectRatio="xMidYMid meet">
<metadata>
Created by potrace 1.11, written by Peter Selinger 2001-2013
</metadata>
<g transform="translate(0.000000,140.000000) scale(0.100000,-0.100000)"
fill="#000000" stroke="none">
<path d="M250 1391 c8 -5 60 -18 115 -30 54 -12 101 -24 104 -27 3 -3 4 -23 4
-45 -1 -26 3 -42 12 -45 8 -3 12 -11 9 -18 -4 -10 -31 -8 -124 8 -66 11 -122
18 -124 15 -4 -4 -9 -306 -6 -334 1 -5 1 -31 0 -57 -1 -38 2 -48 14 -48 9 0
16 -4 16 -10 0 -5 -7 -10 -16 -10 -9 0 -14 -6 -12 -12 3 -8 26 -14 59 -15 30
-1 105 -4 167 -6 100 -3 115 -6 135 -25 19 -20 20 -25 8 -45 -11 -17 -11 -19
0 -9 19 18 29 15 29 -8 0 -17 7 -20 43 -20 40 0 45 -3 65 -39 12 -21 22 -49
23 -62 l1 -24 6 23 c8 25 29 27 24 2 -8 -40 -12 -43 -32 -25 -11 10 -20 29
-20 42 0 40 -18 63 -48 62 -27 -1 -27 -1 -3 -8 14 -4 26 -12 28 -18 6 -18 -44
-27 -83 -15 -25 8 -37 7 -51 -4 -17 -13 -16 -14 7 -9 29 7 102 -16 108 -33 2
-8 -9 -12 -32 -12 -20 0 -36 -5 -36 -11 0 -5 -10 -3 -22 5 -26 18 -64 21 -73
6 -4 -6 7 -23 24 -39 38 -36 41 -55 7 -40 -17 8 -22 17 -18 28 5 14 4 14 -11
2 -12 -9 -17 -10 -17 -2 0 7 -5 9 -11 6 -7 -5 -8 5 -4 29 7 36 7 36 -29 36
-26 0 -38 5 -42 18 -11 35 -21 46 -48 53 -16 4 -36 14 -45 22 -31 27 -66 29
-93 4 -22 -20 -26 -21 -39 -8 -12 14 -14 11 -17 -27 -2 -28 -8 -42 -18 -42 -8
0 -14 -4 -14 -10 0 -5 7 -10 16 -10 14 0 16 -18 13 -157 -4 -157 -4 -158 19
-161 l22 -3 0 165 c0 91 3 166 8 166 26 -1 64 -63 57 -93 -4 -15 1 -32 14 -49
30 -37 30 -142 1 -158 -25 -14 -26 -30 -1 -30 10 0 21 -8 24 -19 6 -25 84 -35
91 -11 3 8 3 -33 2 -92 l-3 -108 463 0 c432 0 463 1 468 18 7 25 15 168 17
309 1 68 5 123 10 123 5 0 9 34 9 75 0 41 -4 75 -9 75 -5 0 -16 7 -25 15 -13
14 -14 11 -11 -22 l4 -38 -11 43 c-6 23 -15 42 -21 42 -5 0 -4 7 3 15 15 19
-1 20 -33 4 -21 -11 -21 -10 -5 7 16 17 16 18 -5 29 -13 7 -29 8 -39 3 -13 -6
-16 -5 -12 6 5 14 -39 32 -55 22 -9 -6 -8 25 2 41 4 7 15 9 25 6 13 -5 12 -1
-5 17 -18 19 -19 27 -11 46 6 13 21 25 32 25 85 6 102 5 114 -4 10 -8 10 -12
0 -18 -6 -4 -17 -5 -23 -1 -18 12 -95 8 -95 -5 0 -6 -3 -19 -7 -29 -5 -13 -3
-16 9 -11 10 3 19 -1 23 -11 6 -13 10 -10 17 16 5 17 13 32 19 32 6 0 8 -4 5
-9 -4 -5 2 -7 12 -4 12 3 24 -4 35 -20 12 -18 22 -24 37 -20 19 5 21 2 19 -35
-2 -23 0 -44 4 -48 3 -4 6 54 6 128 l0 136 -37 6 c-20 3 -49 6 -64 6 -30 0
-35 15 -14 43 13 17 14 16 19 -3 4 -14 13 -20 35 -20 17 0 38 -3 48 -7 15 -6
16 3 12 101 -3 74 -9 110 -18 116 -7 4 -14 25 -15 45 -1 20 -11 49 -22 63 -14
20 -18 35 -12 60 8 40 -9 43 -45 7 l-26 -26 23 -9 c17 -7 18 -9 5 -9 -10 -1
-18 -6 -18 -12 0 -6 -7 -8 -16 -5 -10 4 -19 -4 -29 -27 -7 -17 -11 -36 -8 -41
4 -5 -4 -7 -18 -3 -22 5 -22 5 -6 -7 21 -16 23 -51 2 -42 -9 3 -15 0 -15 -8 0
-8 7 -17 16 -20 22 -8 22 -8 27 12 3 10 5 6 6 -11 0 -15 -8 -46 -19 -67 -11
-22 -16 -40 -10 -40 5 0 10 6 10 13 0 17 38 53 46 44 3 -3 -3 -18 -13 -34 -12
-19 -13 -24 -3 -16 12 9 15 7 16 -13 2 -23 -1 -25 -40 -22 -41 3 -41 3 -38 39
3 34 1 37 -29 43 -74 14 -85 8 -80 -46 3 -21 -24 -24 -36 -4 -4 7 -15 16 -23
19 -12 4 -11 6 3 6 24 1 21 18 -10 48 -15 16 -21 29 -15 31 19 6 14 41 -7 54
-14 9 -17 16 -10 24 7 9 5 11 -8 9 -10 -2 -18 -4 -18 -5 0 -1 -15 -3 -33 -4
-18 -1 -37 -7 -41 -14 -8 -13 -131 -11 -199 3 -26 6 -40 3 -63 -14 -38 -28
-38 -9 0 51 30 46 66 77 129 109 37 18 35 18 -233 18 -152 0 -263 -3 -255 -8z
m1036 -121 c-1 -17 -9 -39 -18 -49 -8 -10 -18 -24 -21 -32 -3 -8 -6 -5 -6 9
-1 12 4 22 9 22 6 0 10 5 10 11 0 5 -5 7 -12 3 -8 -5 -9 -2 -5 10 4 10 7 26 7
37 0 12 7 19 19 19 15 0 19 -6 17 -30z m-131 -180 c4 -7 -3 -8 -22 -4 -38 9
-42 14 -10 14 14 0 29 -5 32 -10z m-655 -30 c0 -5 -5 -10 -11 -10 -5 0 -7 5
-4 10 3 6 8 10 11 10 2 0 4 -4 4 -10z m660 0 c0 -12 -17 -12 -45 0 -17 7 -15
9 13 9 17 1 32 -3 32 -9z m40 -106 c0 -8 -6 -14 -13 -14 -19 0 -27 10 -20 25
6 17 33 8 33 -11z m-586 -3 c3 -5 -1 -11 -9 -15 -9 -3 -15 0 -15 9 0 16 16 20
24 6z m416 -42 c0 7 5 9 10 6 6 -4 8 -10 5 -15 -3 -4 3 -14 12 -21 11 -10 14
-10 9 -2 -5 9 0 12 19 11 20 -2 25 -7 23 -23 -1 -11 1 -25 4 -31 4 -6 1 -11
-7 -11 -8 0 -17 7 -20 15 -4 12 -10 11 -30 -8 -23 -21 -25 -21 -41 -5 -17 17
-36 90 -26 100 3 3 14 -2 24 -12 12 -10 18 -12 18 -4z m215 1 c4 -6 -5 -10
-20 -10 -15 0 -24 4 -20 10 3 6 12 10 20 10 8 0 17 -4 20 -10z m-680 -40 c-19
-21 -35 -18 -35 7 0 9 6 13 15 10 8 -4 17 -2 21 4 3 6 9 8 12 5 3 -3 -3 -15
-13 -26z m-191 -12 c9 -12 16 -19 16 -15 0 4 9 3 20 -3 11 -6 20 -18 19 -28 0
-10 -3 -12 -6 -4 -6 15 -43 16 -43 2 0 -6 -6 -5 -14 2 -10 9 -11 15 -2 20 7 5
5 8 -6 8 -10 0 -18 2 -18 4 0 2 -3 11 -6 20 -9 25 22 20 40 -6z m216 -13 c-7
-8 -20 -15 -29 -15 -11 1 -8 5 9 15 32 18 35 18 20 0z m560 -5 c8 -5 12 -11 9
-14 -3 -3 -14 1 -25 9 -21 16 -8 20 16 5z m-521 -9 c9 -6 6 -8 -13 -8 -14 0
-23 3 -20 8 7 11 15 11 33 0z m621 -7 c0 -8 -5 -12 -10 -9 -6 4 -8 11 -5 16 9
14 15 11 15 -7z m-90 -19 c0 -1 -6 -7 -13 -13 -10 -8 -13 -6 -13 7 0 11 6 17
13 14 7 -3 13 -6 13 -8z m-261 -246 c17 -6 31 -13 31 -16 0 -2 -14 -37 -31
-76 -29 -65 -30 -72 -15 -83 27 -19 0 -27 -29 -8 -15 10 -24 23 -21 30 4 8 9
21 12 29 4 10 0 15 -10 15 -9 0 -16 -5 -16 -11 0 -5 -5 -7 -11 -3 -15 9 -5 78
15 109 18 28 29 30 75 14z m-294 -50 c11 -17 -1 -21 -15 -4 -8 9 -8 15 -2 15
6 0 14 -5 17 -11z m130 1 c3 -5 -1 -10 -10 -10 -9 0 -13 5 -10 10 3 6 8 10 10
10 2 0 7 -4 10 -10z m-192 -176 c28 1 32 -3 35 -26 2 -19 -5 -36 -22 -53 -14
-14 -26 -30 -26 -35 0 -16 -27 -11 -34 6 -3 8 -10 12 -16 9 -5 -3 -10 2 -10
12 0 10 9 24 20 31 18 11 20 10 20 -8 0 -24 25 -27 34 -4 11 29 7 46 -9 40 -9
-3 -18 1 -21 9 -3 8 -15 17 -25 20 -21 7 -22 42 -1 38 7 -2 13 3 14 10 0 6 3
-2 5 -19 4 -29 7 -32 36 -30z m97 -30 c0 -60 -15 -66 -26 -9 -5 30 6 65 22 65
2 0 4 -25 4 -56z m288 7 c67 -57 145 -110 163 -111 8 0 31 -12 50 -26 19 -14
62 -39 97 -56 105 -50 69 -58 -43 -9 -26 11 -51 19 -55 16 -12 -8 -112 25
-150 49 -117 75 -140 93 -140 109 0 10 -8 17 -20 17 -25 0 -27 35 -2 49 24 14
50 4 100 -38z m-238 -13 c0 -5 -9 -22 -20 -36 l-21 -26 5 40 c2 21 5 40 5 41
3 7 31 -11 31 -19z"/>
<path d="M846 514 c-3 -9 -4 -20 0 -25 7 -12 34 -12 34 0 0 5 3 16 6 25 4 11
0 16 -14 16 -11 0 -23 -7 -26 -16z"/>
<path d="M16 1374 c-8 -20 -8 -19 21 -28 20 -7 22 -5 14 15 -10 29 -27 35 -35
13z"/>
<path d="M94 1353 c4 -26 36 -29 36 -4 0 14 -6 21 -19 21 -13 0 -18 -6 -17
-17z"/>
<path d="M147 1346 c-3 -8 2 -16 14 -19 15 -4 19 -1 17 10 -4 22 -24 27 -31 9z"/>
<path d="M1360 1355 c0 -2 9 -9 20 -15 16 -9 20 -8 20 5 0 8 -9 15 -20 15 -11
0 -20 -2 -20 -5z"/>
<path d="M247 1326 c-3 -8 2 -16 14 -19 21 -6 22 -5 13 17 -8 20 -20 21 -27 2z"/>
<path d="M290 1315 c0 -8 5 -15 10 -15 6 0 10 7 10 15 0 8 -4 15 -10 15 -5 0
-10 -7 -10 -15z"/>
<path d="M1360 1315 c0 -8 2 -15 4 -15 2 0 6 7 10 15 3 8 1 15 -4 15 -6 0 -10
-7 -10 -15z"/>
<path d="M320 1305 c0 -8 5 -15 10 -15 6 0 10 7 10 15 0 8 -4 15 -10 15 -5 0
-10 -7 -10 -15z"/>
<path d="M380 1296 c0 -9 7 -16 16 -16 17 0 14 22 -4 28 -7 2 -12 -3 -12 -12z"/>
<path d="M0 1019 l0 -281 93 7 c50 4 96 11 101 15 18 18 -3 40 -39 40 -24 0
-35 4 -35 15 0 10 9 15 28 14 l27 -1 -25 -8 c-24 -8 -23 -8 8 -9 24 -1 32 3
32 17 0 9 3 33 6 54 6 32 4 37 -17 41 -24 4 -24 4 -1 6 l22 1 -2 167 -3 168
-70 12 c-38 7 -82 15 -97 17 l-28 6 0 -281z m163 -136 c-7 -2 -19 -2 -25 0 -7
3 -2 5 12 5 14 0 19 -2 13 -5z m-6 -19 c-3 -3 -12 -4 -19 -1 -8 3 -5 6 6 6 11
1 17 -2 13 -5z m6 -21 c-7 -2 -19 -2 -25 0 -7 3 -2 5 12 5 14 0 19 -2 13 -5z"/>
<path d="M427 1287 c-3 -8 1 -14 9 -14 16 0 19 13 5 21 -5 3 -11 0 -14 -7z"/>
<path d="M1028 1283 c7 -3 16 -2 19 1 4 3 -2 6 -13 5 -11 0 -14 -3 -6 -6z"/>
<path d="M1305 778 c-9 -33 1 -65 20 -65 10 0 12 8 8 31 -10 52 -20 65 -28 34z"/>
<path d="M417 697 c-11 -29 -9 -43 4 -30 6 6 9 19 7 29 -3 18 -4 18 -11 1z"/>
<path d="M454 697 c-19 -23 -5 -105 17 -92 5 4 9 1 9 -4 0 -6 7 -11 16 -11 11
0 13 6 9 19 -3 11 0 29 7 40 19 30 -1 40 -24 11 l-21 -25 5 38 c4 39 0 44 -18
24z"/>
<path d="M540 660 c0 -19 3 -21 12 -12 9 9 9 15 0 24 -9 9 -12 7 -12 -12z"/>
<path d="M1370 670 c0 -5 4 -10 9 -10 6 0 13 5 16 10 3 6 -1 10 -9 10 -9 0
-16 -4 -16 -10z"/>
<path d="M75 562 c-33 -2 -64 -7 -69 -13 -11 -10 33 -11 109 -1 64 9 38 18
-40 14z"/>
<path d="M182 207 c-5 -7 -11 -19 -15 -28 -4 -13 1 -15 26 -13 17 2 34 10 39
16 5 10 11 8 22 -7 8 -11 18 -17 22 -12 4 4 2 7 -4 7 -7 0 -12 5 -12 10 0 6 7
10 15 10 8 0 15 -4 15 -10 0 -16 17 -11 24 7 8 19 -15 38 -25 21 -5 -8 -11 -9
-21 -1 -18 14 -75 14 -86 0z"/>
<path d="M2 30 c3 -42 35 -42 35 0 0 23 -5 30 -19 30 -14 0 -18 -7 -16 -30z"/>
</g>
</svg>
